<?xml version="1.0" encoding="utf-8"?>
<!-- Generator: Adobe Illustrator 17.0.0, SVG Export Plug-In . SVG Version: 6.00 Build 0)  -->
<!DOCTYPE svg PUBLIC "-//W3C//DTD SVG 1.0//EN" "http://www.w3.org/TR/2001/REC-SVG-20010904/DTD/svg10.dtd">
<svg version="1.0" id="Layer_1" xmlns="http://www.w3.org/2000/svg" xmlns:xlink="http://www.w3.org/1999/xlink" x="0px" y="0px"
	 width="60px" height="23px" viewBox="0 0 60 23" enable-background="new 0 0 60 23" xml:space="preserve">
<polygon fill="#231F20" points="22.608,19.545 22.157,18.196 51.741,18.196 51.741,19.548 "/>
<g>
	<polygon fill="#0071BB" points="6.299,21.988 19.892,17.44 18.623,13.843 14.473,13.845 13.889,15.489 11.764,15.491 15.306,4.67 
		17.624,4.668 16.545,1.44 1.148,6.591 	"/>
	<path fill="#0071BB" d="M11.422,11.714"/>
</g>
<path fill="#231F20" d="M26.936,6.499h-5.604v2.319h4.25v1.763h-4.25v3.072h6.043v1.837l-6.13-0.002l-1.942-5.812V4.663h7.633V6.499
	z"/>
<path fill="#231F20" d="M51.696,4.663c0,0,4.226,6.743,4.345,6.93c0.119,0.187,0.251,0.512,0.251,0.512h0.054
	c0,0-0.105-0.195-0.105-0.469c0-0.273,0-6.973,0-6.973h2.008V15.49h-2.019l-4.328-6.952c0,0-0.126-0.135-0.189-0.399
	c0,0-0.037-0.004-0.036,0c0.075,0.23,0.077,0.396,0.077,0.396v6.955h-2.008V4.663H51.696z"/>
<path fill="#231F20" d="M32.64,11.386V9.575l4.44-0.001v5.913h-1.72c0,0,0.002-0.595,0.002-0.749c0-0.153,0.086-0.326,0.086-0.326
	l-0.046-0.002c-0.014,0.057-0.132,0.232-0.176,0.283c-0.603,0.69-1.927,0.99-2.607,0.99c-3.494,0-5.167-2.582-5.167-5.599
	s1.8-5.719,5.164-5.719c2.115,0,3.93,1.355,4.456,3.071c0.005,0.016-1.833,0.822-1.835,0.817c-0.293-0.948-1.302-2.025-2.632-2.025
	c-1.588,0-3.025,1.224-3.025,3.857c0,2.633,1.461,3.711,3.038,3.711c1.629,0,2.599-1.292,2.651-2.407L32.64,11.386z"/>
<path fill="#231F20" d="M48.519,10.058c0,2.769-1.724,5.664-5.096,5.664c-3.402,0-5.116-2.895-5.096-5.664
	c0.023-3.106,1.916-5.665,5.096-5.665C46.704,4.393,48.519,7.249,48.519,10.058z M40.393,10.007c0,1.943,0.92,3.827,3.04,3.827
	c1.978,0,2.982-1.894,2.982-3.827c0-2.054-1.115-3.831-2.982-3.826C41.314,6.188,40.393,7.952,40.393,10.007z"/>
<polygon fill="#0071BB" points="18.037,12.012 14.952,12.012 16.445,7.226 "/>
</svg>
