<?xml version="1.0" encoding="utf-8"?>
<!-- Generator: Adobe Illustrator 17.0.0, SVG Export Plug-In . SVG Version: 6.00 Build 0)  -->
<!DOCTYPE svg PUBLIC "-//W3C//DTD SVG 1.0//EN" "http://www.w3.org/TR/2001/REC-SVG-20010904/DTD/svg10.dtd">
<svg version="1.0" id="Layer_1" xmlns="http://www.w3.org/2000/svg" xmlns:xlink="http://www.w3.org/1999/xlink" x="0px" y="0px"
	 width="180px" height="38px" viewBox="0 0 180 38" enable-background="new 0 0 180 38" xml:space="preserve">
<g>
	<path fill="#BAD405" d="M31.195,26.71h3.899V2.679h-3.899V2.187h6.675c0.281,0,0.562-0.006,0.843-0.018
		c0.281-0.012,0.562-0.029,0.843-0.053c0.281,0,0.562-0.006,0.843-0.018c0.281-0.011,0.562-0.018,0.843-0.018
		c1.382,0,2.6,0.076,3.654,0.228c1.054,0.153,2.038,0.592,2.951,1.318c0.82,0.632,1.399,1.347,1.739,2.143
		c0.339,0.796,0.51,1.546,0.51,2.248c0,0.351-0.065,0.803-0.193,1.353c-0.129,0.55-0.41,1.113-0.843,1.686
		c-0.434,0.574-1.06,1.101-1.88,1.581c-0.82,0.48-1.909,0.803-3.268,0.966v0.07c0.375,0.047,0.884,0.135,1.528,0.264
		c0.644,0.129,1.3,0.346,1.968,0.65c0.667,0.305,1.282,0.709,1.844,1.212c0.562,0.504,0.96,1.154,1.195,1.95
		c0.141,0.469,0.24,1.001,0.299,1.598c0.058,0.597,0.105,1.212,0.14,1.844c0.035,0.633,0.07,1.242,0.105,1.827
		c0.035,0.586,0.1,1.078,0.193,1.475c0.141,0.609,0.363,1.16,0.668,1.651c0.304,0.492,0.796,0.738,1.475,0.738
		c0.304,0,0.62-0.058,0.949-0.176c0.327-0.117,0.62-0.304,0.878-0.562l0.317,0.386c-0.118,0.094-0.252,0.193-0.404,0.298
		c-0.153,0.106-0.346,0.205-0.58,0.299c-0.235,0.093-0.522,0.17-0.861,0.228c-0.34,0.058-0.755,0.088-1.248,0.088
		c-0.937,0-1.716-0.118-2.336-0.351c-0.621-0.234-1.119-0.58-1.493-1.036c-0.375-0.457-0.65-1.019-0.826-1.687
		c-0.175-0.667-0.299-1.446-0.369-2.336L47.11,18.84c-0.094-1.171-0.329-2.084-0.703-2.74c-0.375-0.655-0.814-1.136-1.318-1.44
		c-0.504-0.304-1.025-0.486-1.563-0.544c-0.539-0.058-1.007-0.088-1.405-0.088h-3.513V26.71h3.9v0.492H31.195V26.71z M38.608,13.535
		h3.232c0.655,0,1.252-0.082,1.792-0.246c0.539-0.164,1.001-0.451,1.388-0.861c0.386-0.409,0.685-0.966,0.896-1.669
		c0.211-0.703,0.316-1.592,0.316-2.67c0-1.217-0.158-2.196-0.474-2.934c-0.316-0.738-0.726-1.294-1.23-1.669
		c-0.504-0.374-1.066-0.62-1.686-0.738c-0.621-0.117-1.236-0.176-1.845-0.176c-0.421,0-0.849,0.006-1.282,0.018
		c-0.434,0.012-0.803,0.041-1.107,0.088V13.535z"/>
	<path fill="#BAD405" d="M59.478,18.489c0,0.235-0.006,0.474-0.018,0.72c-0.012,0.246-0.018,0.556-0.018,0.931
		c0,0.773,0.047,1.581,0.141,2.424c0.093,0.843,0.299,1.605,0.615,2.283c0.317,0.68,0.784,1.242,1.406,1.687
		c0.621,0.445,1.446,0.667,2.477,0.667c1.03,0,1.879-0.152,2.547-0.457c0.668-0.304,1.195-0.673,1.581-1.107
		c0.387-0.433,0.673-0.872,0.861-1.317c0.187-0.445,0.328-0.808,0.422-1.089l0.527,0.106c-0.07,0.258-0.206,0.627-0.404,1.106
		c-0.199,0.48-0.516,0.961-0.949,1.44c-0.433,0.481-1.018,0.902-1.756,1.265c-0.738,0.363-1.693,0.545-2.864,0.545
		c-1.171,0-2.255-0.188-3.25-0.562c-0.996-0.374-1.857-0.913-2.582-1.616c-0.726-0.703-1.288-1.54-1.686-2.512
		c-0.398-0.972-0.598-2.055-0.598-3.25c0-1.03,0.205-2.032,0.615-3.004c0.41-0.972,0.972-1.832,1.686-2.582
		c0.714-0.749,1.552-1.353,2.512-1.81c0.96-0.457,1.99-0.685,3.091-0.685c0.655,0,1.358,0.118,2.108,0.352
		c0.749,0.234,1.446,0.615,2.091,1.142c0.644,0.527,1.183,1.224,1.616,2.09c0.433,0.867,0.65,1.944,0.65,3.232H59.478z
		 M66.715,17.997c0.047-0.328,0.07-0.633,0.07-0.913v-0.878c0-0.796-0.076-1.452-0.228-1.968c-0.153-0.515-0.364-0.925-0.632-1.23
		c-0.27-0.304-0.597-0.521-0.984-0.65c-0.386-0.129-0.802-0.193-1.247-0.193c-0.796,0-1.453,0.158-1.968,0.474
		c-0.515,0.316-0.925,0.744-1.23,1.283c-0.305,0.539-0.533,1.159-0.685,1.862c-0.153,0.703-0.252,1.44-0.299,2.214H66.715z"/>
	<path fill="#BAD405" d="M71.697,12.13h2.705V7.597c0.187,0.07,0.363,0.129,0.527,0.176c0.164,0.047,0.445,0.07,0.843,0.07
		c0.351,0,0.655-0.04,0.914-0.122c0.257-0.082,0.503-0.217,0.738-0.404v4.813h4.989v0.492h-4.989V24.11
		c0,0.656,0.064,1.189,0.193,1.599c0.129,0.41,0.299,0.726,0.51,0.949c0.211,0.223,0.439,0.369,0.685,0.439
		c0.246,0.07,0.486,0.105,0.72,0.105c0.82,0,1.481-0.298,1.985-0.896c0.503-0.597,0.826-1.282,0.966-2.055l0.492,0.176
		c-0.07,0.304-0.176,0.644-0.317,1.018c-0.141,0.375-0.357,0.733-0.65,1.072c-0.293,0.34-0.673,0.621-1.142,0.843
		c-0.469,0.222-1.054,0.334-1.757,0.334c-1.757,0-2.981-0.34-3.671-1.018c-0.691-0.679-1.036-1.639-1.036-2.881V12.622h-2.705V12.13
		z"/>
	<path fill="#00883F" d="M113.17,18.489c0,0.235-0.006,0.474-0.017,0.72c-0.012,0.246-0.018,0.556-0.018,0.931
		c0,0.773,0.047,1.581,0.141,2.424c0.093,0.843,0.299,1.605,0.615,2.283c0.316,0.68,0.784,1.242,1.406,1.687
		c0.621,0.445,1.446,0.667,2.477,0.667c1.03,0,1.88-0.152,2.547-0.457c0.667-0.304,1.194-0.673,1.581-1.107
		c0.386-0.433,0.673-0.872,0.861-1.317c0.187-0.445,0.327-0.808,0.421-1.089l0.527,0.106c-0.071,0.258-0.205,0.627-0.404,1.106
		c-0.199,0.48-0.516,0.961-0.949,1.44c-0.433,0.481-1.019,0.902-1.756,1.265c-0.738,0.363-1.693,0.545-2.864,0.545
		c-1.172,0-2.255-0.188-3.25-0.562c-0.996-0.374-1.856-0.913-2.583-1.616c-0.726-0.703-1.288-1.54-1.687-2.512
		c-0.398-0.972-0.597-2.055-0.597-3.25c0-1.03,0.204-2.032,0.614-3.004c0.41-0.972,0.971-1.832,1.687-2.582
		c0.714-0.749,1.551-1.353,2.512-1.81c0.96-0.457,1.991-0.685,3.091-0.685c0.655,0,1.358,0.118,2.108,0.352
		c0.749,0.234,1.446,0.615,2.09,1.142c0.644,0.527,1.183,1.224,1.617,2.09c0.433,0.867,0.649,1.944,0.649,3.232H113.17z
		 M120.407,17.997c0.047-0.328,0.071-0.633,0.071-0.913v-0.878c0-0.796-0.076-1.452-0.229-1.968
		c-0.153-0.515-0.363-0.925-0.632-1.23c-0.27-0.304-0.597-0.521-0.984-0.65c-0.386-0.129-0.802-0.193-1.247-0.193
		c-0.796,0-1.452,0.158-1.967,0.474c-0.515,0.316-0.926,0.744-1.23,1.283c-0.305,0.539-0.533,1.159-0.685,1.862
		c-0.153,0.703-0.252,1.44-0.299,2.214H120.407z"/>
	<path fill="#00883F" d="M142.401,26.815c-0.305,0.234-0.667,0.439-1.089,0.615c-0.421,0.176-0.937,0.264-1.545,0.264
		c-1.124,0-1.939-0.24-2.442-0.72c-0.503-0.48-0.849-1.153-1.036-2.02h-0.071c-0.094,0.211-0.223,0.474-0.386,0.791
		c-0.164,0.316-0.416,0.621-0.755,0.913c-0.339,0.293-0.79,0.539-1.352,0.738c-0.562,0.199-1.277,0.299-2.143,0.299
		c-0.984,0-1.769-0.111-2.354-0.334c-0.586-0.222-1.042-0.497-1.37-0.826c-0.328-0.328-0.545-0.697-0.65-1.107
		c-0.105-0.409-0.158-0.791-0.158-1.141c0-0.82,0.163-1.476,0.492-1.968c0.328-0.492,0.756-0.884,1.282-1.177
		c0.527-0.293,1.112-0.533,1.757-0.72c0.644-0.187,1.294-0.387,1.95-0.597c0.773-0.258,1.411-0.48,1.915-0.668
		c0.503-0.187,0.896-0.415,1.177-0.685c0.281-0.269,0.474-0.609,0.58-1.019c0.105-0.409,0.158-0.966,0.158-1.669
		c0-0.562-0.035-1.066-0.105-1.511c-0.07-0.445-0.199-0.826-0.387-1.142c-0.188-0.316-0.456-0.556-0.807-0.72
		c-0.351-0.164-0.82-0.246-1.405-0.246c-0.773,0-1.412,0.135-1.915,0.404c-0.504,0.27-0.755,0.709-0.755,1.318
		c0,0.398,0.035,0.79,0.105,1.177c0.071,0.386,0.106,0.674,0.106,0.861c0,0.328-0.118,0.603-0.351,0.826
		c-0.235,0.223-0.574,0.334-1.019,0.334c-0.773,0-1.253-0.14-1.44-0.421c-0.188-0.281-0.281-0.644-0.281-1.089
		c0-0.515,0.117-1.007,0.351-1.475c0.234-0.468,0.58-0.884,1.036-1.247c0.457-0.363,1.03-0.65,1.721-0.861
		c0.691-0.211,1.482-0.316,2.372-0.316c1.077,0,1.979,0.135,2.706,0.404c0.726,0.27,1.311,0.633,1.756,1.089
		c0.445,0.456,0.761,0.972,0.948,1.546c0.188,0.574,0.281,1.177,0.281,1.81v8.748c0,0.68,0.105,1.136,0.316,1.371
		c0.211,0.234,0.515,0.351,0.913,0.351c0.258,0,0.527-0.046,0.808-0.141c0.281-0.093,0.55-0.234,0.808-0.422L142.401,26.815z
		 M136.252,18.594h-0.07c-0.048,0.305-0.433,0.609-1.16,0.914l-2.635,1.054c-0.75,0.305-1.324,0.732-1.722,1.283
		c-0.398,0.55-0.597,1.236-0.597,2.055c0,0.352,0.035,0.715,0.105,1.089c0.07,0.375,0.199,0.709,0.386,1.001
		c0.188,0.294,0.451,0.533,0.791,0.72c0.339,0.188,0.778,0.281,1.318,0.281c0.773,0,1.4-0.164,1.88-0.492
		c0.48-0.327,0.843-0.738,1.089-1.23c0.246-0.492,0.409-1.024,0.492-1.598c0.082-0.574,0.123-1.095,0.123-1.563V18.594z"/>
	<path fill="#00883F" d="M152.838,1.871h5.727V26.71h2.705v0.492h-5.656v-3.056h-0.07c-0.094,0.281-0.235,0.621-0.421,1.019
		c-0.188,0.398-0.463,0.785-0.826,1.159c-0.363,0.375-0.82,0.697-1.37,0.966c-0.551,0.269-1.224,0.404-2.02,0.404
		c-1.031,0-2.009-0.223-2.934-0.667c-0.925-0.445-1.739-1.042-2.442-1.792c-0.703-0.749-1.259-1.61-1.669-2.582
		c-0.41-0.971-0.614-1.996-0.614-3.074c0-1.054,0.198-2.061,0.597-3.021c0.398-0.96,0.936-1.797,1.616-2.512
		c0.679-0.714,1.464-1.288,2.354-1.721c0.89-0.433,1.838-0.65,2.846-0.65c1.288,0,2.33,0.316,3.127,0.949
		c0.796,0.633,1.358,1.405,1.686,2.319h0.07V2.363h-2.705V1.871z M146.76,19.156c0,1.218,0.035,2.325,0.105,3.32
		c0.07,0.996,0.246,1.844,0.527,2.547c0.281,0.703,0.703,1.242,1.265,1.616c0.562,0.375,1.323,0.562,2.284,0.562
		c0.984,0,1.774-0.211,2.371-0.632c0.597-0.422,1.059-0.966,1.388-1.634c0.328-0.667,0.55-1.411,0.667-2.231
		c0.117-0.82,0.176-1.616,0.176-2.389c0-0.913-0.017-1.704-0.053-2.371c-0.035-0.667-0.1-1.259-0.193-1.774
		c-0.094-0.515-0.223-0.96-0.386-1.335c-0.164-0.374-0.363-0.726-0.598-1.054c-0.351-0.468-0.808-0.855-1.37-1.159
		c-0.562-0.304-1.277-0.457-2.143-0.457c-0.82,0-1.493,0.164-2.02,0.492c-0.527,0.328-0.937,0.797-1.229,1.405
		c-0.294,0.61-0.498,1.341-0.615,2.196C146.818,17.113,146.76,18.079,146.76,19.156"/>
	<polygon fill="#BAD405" points="90.053,26.71 90.053,12.627 92.728,12.627 92.728,12.112 84.316,12.112 84.316,12.627 
		87.031,12.627 87.031,26.71 84.326,26.71 84.326,27.202 92.758,27.202 92.758,26.71 	"/>
	<path fill="#00883F" d="M173.567,12.13v0.492h2.915l-4.743,11.031l-4.532-11.031h2.951V12.13h-8.607v0.492h2.424l6.078,15.037
		l-1.546,3.935c-0.375,0.936-0.715,1.727-1.019,2.371c-0.305,0.644-0.609,1.165-0.914,1.563c-0.304,0.398-0.614,0.685-0.93,0.861
		c-0.317,0.175-0.662,0.263-1.037,0.263c-0.281,0-0.503-0.047-0.667-0.14c-0.08-0.046-0.14-0.117-0.181-0.212
		c0.127-0.078,0.247-0.17,0.36-0.283c0.364-0.363,0.544-0.802,0.544-1.318c0-0.516-0.181-0.955-0.544-1.317
		c-0.05-0.05-0.101-0.095-0.154-0.138c-0.082-0.083-0.171-0.154-0.271-0.21c-0.164-0.094-0.339-0.158-0.527-0.193
		c-0.188-0.035-0.364-0.053-0.527-0.053c-0.469,0-0.867,0.146-1.194,0.439c-0.308,0.275-0.47,0.681-0.488,1.214
		c-0.011,0.084-0.018,0.17-0.018,0.259c0,0.288,0.059,0.552,0.173,0.792c0.082,0.242,0.215,0.477,0.404,0.704
		c0.234,0.281,0.556,0.527,0.966,0.738c0.41,0.21,0.954,0.316,1.634,0.316c0.562,0,1.054-0.1,1.476-0.299
		c0.421-0.199,0.813-0.498,1.177-0.896c0.363-0.398,0.708-0.913,1.036-1.546c0.328-0.632,0.656-1.37,0.984-2.213
		c0.397-1.031,0.796-2.055,1.194-3.074c0.398-1.019,0.82-2.032,1.265-3.039l5.797-13.561h1.897V12.13H173.567z"/>
	<path fill="#00883F" d="M108.037,15.547c0.011-0.035,0.021-0.071,0.03-0.107c0.002-0.011,0.005-0.021,0.008-0.032
		c0.015-0.062,0.026-0.125,0.034-0.189c0.003-0.018,0.005-0.036,0.008-0.054c0.001-0.007,0.002-0.015,0.002-0.022
		c0.018-0.149,0.028-0.308,0.028-0.483c0-0.351-0.058-0.703-0.175-1.054c-0.118-0.351-0.305-0.661-0.562-0.931
		c-0.258-0.269-0.586-0.492-0.984-0.667c-0.398-0.175-0.867-0.263-1.405-0.263c-0.75,0-1.388,0.141-1.915,0.422
		c-0.527,0.281-0.978,0.627-1.352,1.036c-0.375,0.41-0.668,0.838-0.879,1.283c-0.21,0.445-0.364,0.843-0.457,1.194h-0.07V12.13
		H94.69v0.492h2.705V26.71H94.69v0.492h8.783V26.71h-3.057v-8.045c0-0.984,0.123-1.856,0.369-2.618
		c0.246-0.761,0.55-1.411,0.914-1.95c0.362-0.539,0.755-0.949,1.176-1.23c0.422-0.281,0.82-0.422,1.195-0.422
		c0.744,0,1.146,0.312,1.216,0.929c-0.12,0.075-0.233,0.164-0.34,0.271c-0.363,0.363-0.544,0.802-0.544,1.317
		c0,0.515,0.181,0.954,0.544,1.318c0.364,0.363,0.803,0.545,1.318,0.545c0.515,0,0.955-0.181,1.318-0.545
		c0.058-0.058,0.11-0.12,0.159-0.182C107.872,15.962,107.969,15.776,108.037,15.547"/>
	<path fill="#00883F" d="M88.531,4.636c-0.515,0-0.954,0.181-1.317,0.545c-0.363,0.362-0.545,0.802-0.545,1.318
		c0,0.515,0.182,0.954,0.545,1.318c0.363,0.362,0.802,0.544,1.317,0.544c0.516,0,0.954-0.182,1.317-0.544
		c0.364-0.363,0.545-0.803,0.545-1.318c0-0.516-0.181-0.955-0.545-1.318C89.485,4.817,89.046,4.636,88.531,4.636"/>
</g>
<g>
	<path fill="#BAD405" d="M7.231,3.495C7.152,3.382,7.064,3.273,6.964,3.169C6.475,2.66,5.879,2.396,5.18,2.374
		C4.435,2.35,3.813,2.584,3.315,3.077C2.812,3.566,2.552,4.154,2.53,4.84C2.512,5.41,2.666,5.919,2.982,6.372
		C4.174,5.137,5.621,4.152,7.231,3.495"/>
	<path fill="#BAD405" d="M21.373,6.341c0.3-0.438,0.444-0.939,0.427-1.501c-0.023-0.716-0.296-1.31-0.819-1.785
		c-0.52-0.477-1.133-0.703-1.831-0.68c-0.746,0.024-1.351,0.297-1.817,0.82c-0.082,0.091-0.154,0.186-0.221,0.282
		C18.725,4.128,20.176,5.109,21.373,6.341"/>
	<path fill="#BAD405" d="M20.518,7.938c-1.047-1.146-2.329-2.074-3.768-2.709c-1.385-0.611-2.913-0.954-4.522-0.954
		c-1.628,0-3.174,0.351-4.572,0.977c-1.428,0.639-2.7,1.566-3.738,2.709C2.106,9.956,1,12.603,1,15.504
		c0,6.191,5.037,11.228,11.228,11.228c6.191,0,11.228-5.037,11.228-11.228C23.456,12.592,22.342,9.936,20.518,7.938 M12.228,24.138
		c-4.761,0-8.634-3.873-8.634-8.634c0-4.761,3.873-8.634,8.634-8.634c4.761,0,8.634,3.873,8.634,8.634
		C20.862,20.265,16.989,24.138,12.228,24.138"/>
	<path fill="#BAD405" d="M9.878,10.24l0.003,0.011l0.004-0.001c-0.004-0.016-0.007-0.033-0.01-0.049
		C9.876,10.214,9.876,10.227,9.878,10.24"/>
	<path fill="#BAD405" d="M9.874,10.197l0,0.005c0.003,0.016,0.007,0.033,0.011,0.049l0.002-0.001L9.874,10.197z"/>
	<polyline fill="#BAD405" points="17.469,16.206 17.469,16.206 17.476,16.208 17.469,16.206 	"/>
	<path fill="#BAD405" d="M17.503,16.53l-0.019-0.004c-0.003-0.001-0.006-0.001-0.008-0.002l-0.007-0.001l-4.964-1.068l-1.289-5.173
		c-0.001-0.003-0.002-0.007-0.002-0.011l-0.011-0.042c-0.082-0.285-0.344-0.493-0.656-0.493c-0.377,0-0.683,0.306-0.683,0.683
		c0,0.032,0.004,0.065,0.01,0.099l0-0.005c0,0,1.537,6.084,1.554,6.153c0,0.001,0.002,0.012,0.003,0.013
		c0.001,0,5.783,1.185,5.793,1.187c0.037,0.006,0.075,0.01,0.114,0.01c0.377,0,0.683-0.306,0.683-0.683
		C18.021,16.872,17.8,16.604,17.503,16.53"/>
</g>
</svg>
